<?xml version="1.0" encoding="UTF-8" standalone="no"?>
<!-- Created with Inkscape (http://www.inkscape.org/) -->

<svg
   width="210mm"
   height="297mm"
   viewBox="0 0 210 297"
   version="1.1"
   id="svg5"
   inkscape:version="1.2.1 (9c6d41e410, 2022-07-14)"
   sodipodi:docname="kresba001.svg"
   xmlns:inkscape="http://www.inkscape.org/namespaces/inkscape"
   xmlns:sodipodi="http://sodipodi.sourceforge.net/DTD/sodipodi-0.dtd"
   xmlns="http://www.w3.org/2000/svg"
   xmlns:svg="http://www.w3.org/2000/svg">
  <sodipodi:namedview
     id="namedview7"
     pagecolor="#505050"
     bordercolor="#eeeeee"
     borderopacity="1"
     inkscape:showpageshadow="0"
     inkscape:pageopacity="0"
     inkscape:pagecheckerboard="0"
     inkscape:deskcolor="#505050"
     inkscape:document-units="mm"
     showgrid="false"
     inkscape:zoom="0.72515432"
     inkscape:cx="397.15684"
     inkscape:cy="561.25984"
     inkscape:window-width="1920"
     inkscape:window-height="1001"
     inkscape:window-x="-9"
     inkscape:window-y="-9"
     inkscape:window-maximized="1"
     inkscape:current-layer="layer1" />
  <defs
     id="defs2" />
  <g
     inkscape:label="Vrstva 1"
     inkscape:groupmode="layer"
     id="layer1">
    <rect
       style="fill:#000000;stroke-width:0.264583"
       id="rect163"
       width="125.87839"
       height="175.49998"
       x="49.986485"
       y="49.621624"
       ry="0" />
    <path
       style="fill:#ffffff;stroke-width:0.264583"
       id="path263"
       d="m 82.155865,104.25434 c 0.02961,1.79074 0.02384,3.58189 0.02244,5.37282 0.0057,1.88288 -0.0029,3.76575 -0.0032,5.64863 -0.0071,1.58568 -0.0045,3.17134 -0.0021,4.75702 0.006,1.63715 0.0016,3.27436 -0.0063,4.91151 0.04649,1.64062 -0.07991,3.27088 -0.340318,4.88939 -0.255238,1.95039 -0.77158,3.8466 -1.194165,5.76412 -0.347948,1.67079 -0.529465,3.36693 -0.624811,5.06878 -0.103536,1.33231 -0.05535,2.63808 0.295913,3.92897 0.72622,1.9068 2.018382,3.53702 3.319327,5.08424 1.536558,1.68078 3.099353,3.33602 4.619885,5.03294 2.326079,2.65314 5.46677,4.17755 8.480261,5.9239 1.970881,1.16651 4.057953,2.11079 6.095073,3.15052 1.08378,0.46249 2.11358,1.07936 3.2168,1.4973 0.46131,0.17476 1.87825,0.58873 2.31531,0.71949 2.66305,0.84851 5.35619,1.58242 8.00297,2.48135 2.06434,0.69369 4.03922,1.61223 6.16836,2.09428 1.63939,0.29697 3.3138,0.25075 4.9723,0.24375 2.18177,0.0644 4.38093,-0.052 6.4565,-0.79158 0.41302,-0.14718 0.8079,-0.34103 1.21185,-0.51154 2.94542,-1.40011 3.48089,-3.30742 4.10429,-6.3026 0.62106,-3.4421 0.6431,-6.9494 0.95663,-10.42576 0.29589,-4.19151 1.0533,-8.32347 1.72914,-12.46408 0.63383,-4.28747 1.08946,-8.59968 1.37714,-12.92363 0.24559,-3.83389 0.28177,-7.67581 0.3174,-11.51595 0.0286,-2.50685 0.0196,-5.01393 0.0282,-7.52088 0.047,-1.38703 0.0105,-2.76359 -0.13908,-4.1422 -0.0671,-1.0965 -0.45136,-2.10651 -1.18777,-2.91924 -0.12223,-0.0884 -0.2343,-0.19295 -0.3667,-0.26527 -1.29421,-0.7069 -2.58839,-1.415516 -3.90963,-2.0705 -0.28483,-0.141195 -0.62627,-0.138613 -0.91277,-0.276368 -0.0663,-0.03188 -0.24307,-0.165902 -0.18154,-0.125561 1.12725,0.739032 2.2525,1.481119 3.37875,2.221679 0.89287,0.0171 1.85551,-0.20697 2.72373,0.0991 0.39418,0.13897 0.74608,0.37702 1.11912,0.56554 -0.72215,-0.37079 -1.35756,-1.18076 -2.16645,-1.11236 -0.55397,0.0468 0.82389,0.75533 1.16105,1.19738 1.2051,1.58 1.96977,3.58146 2.4521,5.48946 0.18997,0.75147 0.30616,1.51969 0.45923,2.27953 0.54832,3.30416 0.6935,6.65338 0.70922,9.99678 -0.002,0.3312 -0.003,0.66241 -0.005,0.99362 0,0 3.47748,1.77131 3.47748,1.77131 v 0 c -0.002,-0.3348 -0.005,-0.6696 -0.007,-1.0044 -0.0639,-3.38164 -0.2286,-6.7661 -0.78134,-10.10878 -0.42051,-2.29612 -0.77449,-4.08858 -1.80546,-6.20976 -0.41268,-0.84909 -1.22548,-2.39024 -2.06508,-2.99002 -1.41663,-1.01199 -2.97562,-1.8082 -4.46343,-2.7123 -0.40487,-0.165769 -0.79351,-0.378701 -1.21461,-0.497303 -0.82372,-0.231997 -2.12365,-0.179318 -2.94485,0.09074 1.02616,0.805598 2.03856,1.629053 3.07849,2.416803 0.15942,0.12076 0.38065,0.12314 0.5729,0.17823 0.17967,0.0515 0.69427,0.25706 0.53973,0.15195 -2.08058,-1.414991 -4.06733,-2.278212 -2.50731,-1.584536 0.82168,0.667426 1.24039,1.617936 1.31064,2.672306 0.16269,1.3723 0.24327,2.74036 0.20067,4.12424 0.017,2.5161 0.0211,5.03226 0.0318,7.54838 -0.006,3.8405 -0.0464,7.68271 -0.26238,11.51807 -0.28778,4.31267 -0.73936,8.60966 -1.37224,12.88619 -0.66189,4.14989 -1.44928,8.28551 -1.74432,12.48445 -0.14834,1.50925 -0.25196,2.42468 -0.34767,3.92381 -0.13751,2.15388 -0.19139,4.3201 -0.62549,6.4436 -0.62467,2.89842 -1.0751,4.6288 -3.93839,5.96611 -0.3935,0.15978 -0.77803,0.34374 -1.18049,0.47935 -2.06638,0.69625 -4.25008,0.74014 -6.40673,0.69277 -1.65405,-0.0203 -3.3272,0.003 -4.95395,-0.34132 -2.08809,-0.51733 -4.0459,-1.41617 -6.08908,-2.07866 -2.6574,-0.88939 -5.35751,-1.63308 -8.02668,-2.48614 -1.90881,-0.59886 -3.74049,-1.36041 -5.515207,-2.28778 -2.037866,-1.01819 -4.102169,-1.98735 -6.062927,-3.15249 0.756764,0.44025 1.501291,0.90225 2.270289,1.32076 0.335664,0.18268 -0.649833,-0.40253 -0.969068,-0.61259 -1.163312,-0.7655 -2.245061,-1.63765 -3.174865,-2.67943 -1.521741,-1.69413 -3.066833,-3.36337 -4.62497,-5.02268 -1.286671,-1.51309 -2.576523,-3.07444 -3.354506,-4.9225 -0.400384,-1.24557 -0.43203,-2.50695 -0.348213,-3.80731 0.06987,-1.68668 0.222988,-3.37066 0.56384,-5.02671 0.421153,-1.92374 0.955445,-3.82224 1.208315,-5.7794 0.279067,-1.62976 0.443336,-3.27841 0.394309,-4.93403 -0.0079,-1.63928 -0.01225,-3.27862 -0.0063,-4.91791 0.0024,-1.58639 0.005,-3.17275 -0.0021,-4.75914 -2.64e-4,-1.88397 -0.0089,-3.76793 -0.0032,-5.6519 -0.0013,-1.78331 -0.0073,-3.56684 0.02244,-5.34996 0,0 -3.526105,-1.79664 -3.526105,-1.79664 z" />
    <path
       style="fill:#ffffff;stroke-width:0.264583"
       id="path265"
       d="m 79.08274,102.46732 c -3.100795,-0.67756 -6.334016,-1.53453 -9.52905,-0.9562 -0.458634,0.083 -0.895292,0.25961 -1.342938,0.38941 -2.373789,1.27569 -2.829631,3.00428 -3.128277,5.50745 -0.09613,1.57345 -0.0607,0.79155 -0.107307,2.34566 0,0 3.459189,1.77416 3.459189,1.77416 v 0 c 0.03569,-1.53664 0.0048,-0.76548 0.09345,-2.31344 0.190376,-1.65857 0.450374,-3.47607 1.890287,-4.55656 0.302988,-0.22735 0.655087,-0.38057 0.982631,-0.57086 0.425714,-0.1162 0.841925,-0.27568 1.277146,-0.34862 3.186351,-0.53395 6.435791,0.32281 9.485217,1.15631 0,0 -3.080348,-2.42731 -3.080348,-2.42731 z" />
    <path
       style="fill:#ffffff;stroke-width:0.264583"
       id="path267"
       d="m 80.910315,99.923736 c 1.741927,-0.565721 3.349588,-1.462656 5.046276,-2.136854 1.470107,-0.584166 2.083089,-0.727588 3.604935,-1.177904 3.22416,-0.883261 6.547247,-0.271732 9.821759,-0.430466 0.687505,-0.03333 1.369805,-0.13693 2.054705,-0.205396 0.42942,-0.70966 0.99186,-1.354278 1.28826,-2.128983 0.9273,-2.423721 0.83843,-6.076265 0.86191,-8.656696 0,0 -3.32023,-1.693331 -3.32023,-1.693331 v 0 c 0.004,2.609054 0.13119,5.980986 -0.806077,8.454874 -0.252293,0.665922 -0.746313,1.213028 -1.11947,1.81954 -0.674275,0.06067 -1.346338,0.155662 -2.022825,0.182015 -1.445921,0.05633 -2.757535,-0.07028 -4.198945,-0.08233 -1.919825,-0.01606 -3.83781,0.125619 -5.706843,0.590582 -1.47661,0.445373 -2.221968,0.636994 -3.656023,1.200994 -1.693656,0.666096 -3.301656,1.575212 -5.08627,1.998665 0,0 3.238838,2.265293 3.238838,2.265293 z" />
    <path
       style="fill:#ffffff;stroke-width:0.264583"
       id="path269"
       d="m 108.98459,98.215867 c 5.23283,0.110122 10.45097,0.564398 15.6576,1.071676 3.82527,0.372692 6.42233,0.602165 10.11168,1.278777 1.02491,0.18796 2.03286,0.45886 3.04929,0.68829 0.63346,0.20249 1.28234,0.3619 1.90038,0.60746 0.3247,0.12901 1.22424,0.67394 0.91507,0.51119 -1.04172,-0.54837 -2.07528,-1.11211 -3.11292,-1.66816 0,0 3.6243,1.59486 3.6243,1.59486 v 0 c -2.82512,-1.87884 -3.38524,-2.60135 -6.27453,-3.282869 -0.98587,-0.196585 -1.96538,-0.428302 -2.9576,-0.589753 -3.62811,-0.590349 -6.22755,-0.796346 -9.97864,-1.156565 -5.37279,-0.515949 -10.7496,-0.984854 -16.13283,-1.378533 0,0 3.1982,2.323627 3.1982,2.323627 z" />
    <path
       style="fill:#ffffff;stroke-width:0.264583"
       id="path271"
       d="m 99.027635,115.65861 c 3.556505,2.41962 7.566975,3.85715 11.511075,5.46696 1.4651,0.58345 2.91841,1.1945 4.38886,1.7645 0,0 -3.09509,-2.42925 -3.09509,-2.42925 v 0 c -1.44475,-0.56509 -2.88221,-1.14784 -4.32399,-1.72035 -1.97555,-0.79508 -3.9649,-1.55864 -5.90153,-2.44664 -0.4289,-0.19666 -1.656884,-0.8908 -1.27667,-0.6114 0.73982,0.54366 1.57681,0.94088 2.36521,1.41131 0,0 -3.667865,-1.43513 -3.667865,-1.43513 z" />
    <path
       style="fill:#ffffff;stroke-width:0.264583"
       id="path273"
       d="m 122.40735,123.20444 c 2.02385,0.51244 4.02207,1.12602 6.06965,1.53796 1.47609,0.2951 2.97233,0.42683 4.47429,0.47114 0.74244,0.076 1.48423,0.14269 2.2126,0.30687 0,0 -3.1507,-2.38321 -3.1507,-2.38321 v 0 c -0.7423,-0.12306 -1.49056,-0.20541 -2.2419,-0.25048 -1.47714,-0.0561 -2.9494,-0.20287 -4.39946,-0.49975 -2.05314,-0.44661 -4.07476,-1.02617 -6.09549,-1.59982 0,0 3.13101,2.41729 3.13101,2.41729 z" />
    <path
       style="fill:#ffffff;stroke-width:0.264583"
       id="path275"
       d="m 114.49308,129.31328 c -0.47278,1.21539 -0.8938,2.45239 -1.29222,3.6944 -0.17201,0.68978 -0.0839,0.35133 -0.2636,1.01553 0,0 3.47067,1.88593 3.47067,1.88593 v 0 c 0.18173,-0.66667 0.0971,-0.33204 0.25401,-1.00389 0.37425,-1.23254 0.77625,-2.46351 1.27961,-3.64916 0,0 -3.44847,-1.94281 -3.44847,-1.94281 z" />
    <path
       style="fill:#ffffff;stroke-width:0.264583"
       id="path277"
       d="m 99.512262,137.48498 c 1.254808,1.46517 2.255168,3.11082 3.338198,4.69996 1.54414,2.21432 3.8124,3.78405 5.92332,5.41668 2.20052,1.74236 4.60986,3.15656 7.11901,4.42072 0.97839,0.39179 1.90147,0.89575 2.87832,1.29104 1.14819,0.40819 2.29416,0.82633 3.47018,1.14808 0.16794,0.0375 0.33589,0.075 0.50384,0.11242 0,0 -3.1408,-2.39574 -3.1408,-2.39574 v 0 c -0.16325,-0.0412 -0.3265,-0.0823 -0.48975,-0.12349 -1.1621,-0.34334 -2.30746,-0.74429 -3.43704,-1.18263 -0.96409,-0.4203 -1.90239,-0.89653 -2.86616,-1.31782 -1.42696,-0.73152 -0.77208,-0.4071 2.37537,1.42875 0.19828,0.11564 -0.39755,-0.22993 -0.59046,-0.35434 -0.76522,-0.49351 -1.47611,-1.06553 -2.2204,-1.58869 -1.79005,-1.37922 -3.79971,-2.73384 -5.31082,-4.42598 -0.24252,-0.27158 -0.43448,-0.58439 -0.65172,-0.87658 -1.08893,-1.56366 -2.02846,-3.22914 -3.26675,-4.6862 0,0 -3.634338,-1.56618 -3.634338,-1.56618 z" />
    <path
       style="fill:#ffffff;stroke-width:0.264583"
       id="path279"
       d="m 119.28552,96.471802 c 2.03766,-1.316252 4.28579,-2.143987 6.5699,-2.907228 2.15703,-0.678847 4.43544,-0.870524 6.66951,-1.163026 0.26195,-0.02853 2.02793,-0.230344 2.30103,-0.222698 2.12822,0.05958 4.32685,1.035955 6.26902,1.823033 0,0 -3.0113,-2.367077 -3.0113,-2.367077 v 0 c -1.62375,-0.63414 -3.26837,-1.29672 -4.99769,-1.592175 -1.26263,-0.21572 -2.48021,-0.04888 -3.73395,0.117668 -2.25194,0.309007 -4.55872,0.479502 -6.72026,1.220134 -1.15363,0.400431 -2.31647,0.780106 -3.43024,1.285428 -0.73555,0.333727 -1.57036,0.798711 -2.29064,1.16649 -0.30005,0.153212 -0.60381,0.299061 -0.90572,0.44859 0,0 3.28034,2.190861 3.28034,2.190861 z" />
    <path
       style="fill:#ffffff;stroke-width:0.264583"
       id="path281"
       d="m 76.564807,115.24246 c 1.085405,1.36679 2.08866,2.80642 2.939981,4.33103 0.443915,0.96323 1.017077,1.85778 1.333711,2.87445 0,0 3.571687,1.70032 3.571687,1.70032 v 0 c -0.261538,-1.07377 -0.862573,-1.97679 -1.323083,-2.97076 -0.835435,-1.54426 -1.859142,-2.97053 -2.87873,-4.39733 0,0 -3.643566,-1.53771 -3.643566,-1.53771 z" />
    <path
       style="fill:#ffffff;stroke-width:0.264583"
       id="path283"
       d="m 144.42711,136.96595 c -0.0546,-1.52158 -0.0169,-3.03906 0.17946,-4.54916 0.12393,-1.22086 0.86021,-1.98732 1.71652,-2.77662 0,0 -3.34747,-2.0669 -3.34747,-2.0669 v 0 c -0.90437,0.85667 -1.69519,1.71805 -1.84012,3.01664 -0.20699,1.51961 -0.25152,3.04488 -0.23829,4.57747 0,0 3.5299,1.79857 3.5299,1.79857 z" />
  </g>
</svg>
